<?xml version="1.0" standalone="no"?><svg xmlns="http://www.w3.org/2000/svg" viewBox="0 0 1440 320"><path fill="#ffffff" fill-opacity="1" d="M0,128L30,122.7C60,117,120,107,180,133.3C240,160,300,224,360,250.7C420,277,480,267,540,245.3C600,224,660,192,720,176C780,160,840,160,900,181.3C960,203,1020,245,1080,250.7C1140,256,1200,224,1260,208C1320,192,1380,192,1410,192L1440,192L1440,320L1410,320C1380,320,1320,320,1260,320C1200,320,1140,320,1080,320C1020,320,960,320,900,320C840,320,780,320,720,320C660,320,600,320,540,320C480,320,420,320,360,320C300,320,240,320,180,320C120,320,60,320,30,320L0,320Z"></path></svg>