<?xml version="1.0" standalone="no"?><svg xmlns="http://www.w3.org/2000/svg" viewBox="0 0 1440 320"><path fill="#ffffff" fill-opacity="1" d="M0,128L30,122.7C60,117,120,107,180,133.3C240,160,300,224,360,250.7C420,277,480,267,540,245.3C600,224,660,192,720,176C780,160,840,160,900,181.3C960,203,1020,245,1080,250.7C1140,256,1200,224,1260,208C1320,192,1380,192,1410,192L1440,192L1440,0L1410,0C1380,0,1320,0,1260,0C1200,0,1140,0,1080,0C1020,0,960,0,900,0C840,0,780,0,720,0C660,0,600,0,540,0C480,0,420,0,360,0C300,0,240,0,180,0C120,0,60,0,30,0L0,0Z"></path></svg>